<svg width="24" height="24" viewBox="0 0 24 24" fill="none" xmlns="http://www.w3.org/2000/svg">
<path d="M16.2887 7.46948C15.4975 3.79448 13.81 1.46948 12.2492 1.46948C10.6885 1.46948 9.00097 3.79448 8.20972 7.46948H16.2887Z" fill="#334155"/>
<path d="M7.74927 11.9695C7.74908 12.9728 7.81598 13.9751 7.94952 14.9695H16.549C16.6826 13.9751 16.7495 12.9728 16.7493 11.9695C16.7495 10.9661 16.6826 9.9639 16.549 8.96948H7.94952C7.81598 9.9639 7.74908 10.9661 7.74927 11.9695Z" fill="#334155"/>
<path d="M8.20972 16.4695C9.00097 20.1445 10.6885 22.4695 12.2492 22.4695C13.81 22.4695 15.4975 20.1445 16.2887 16.4695H8.20972Z" fill="#334155"/>
<path d="M17.8246 7.4695H22.5496C21.8397 5.85382 20.761 4.42701 19.4 3.3035C18.0391 2.18 16.4338 1.39107 14.7129 1C16.1356 2.25175 17.2516 4.56625 17.8246 7.4695Z" fill="#334155"/>
<path d="M23.089 8.96948H18.064C18.1877 9.96469 18.2496 10.9666 18.2492 11.9695C18.2493 12.9724 18.1872 13.9743 18.0632 14.9695H23.0882C23.6352 13.0069 23.6359 10.9321 23.089 8.96948Z" fill="#334155"/>
<path d="M14.7129 22.939C16.4341 22.5481 18.0397 21.7593 19.4009 20.6358C20.7621 19.5123 21.841 18.0853 22.5511 16.4695H17.8261C17.2516 19.3727 16.1356 21.6872 14.7129 22.939Z" fill="#334155"/>
<path d="M6.67373 16.4695H1.94873C2.65882 18.0853 3.73776 19.5123 5.09898 20.6358C6.4602 21.7593 8.06581 22.5481 9.78698 22.939C8.36273 21.6872 7.24673 19.3727 6.67373 16.4695Z" fill="#334155"/>
<path d="M9.78552 1C8.06434 1.39086 6.45874 2.17969 5.09752 3.30321C3.7363 4.42672 2.65736 5.85365 1.94727 7.4695H6.67227C7.24677 4.56625 8.36277 2.25175 9.78552 1Z" fill="#334155"/>
<path d="M6.24921 11.9695C6.24912 10.9666 6.31124 9.96467 6.43521 8.96948H1.41021C0.863262 10.9321 0.863262 13.0069 1.41021 14.9695H6.43521C6.31124 13.9743 6.24912 12.9724 6.24921 11.9695Z" fill="#334155"/>
</svg>
